<?xml version="1.0" encoding="UTF-8" standalone="no"?>
<svg
   xmlns:dc="http://purl.org/dc/elements/1.1/"
   xmlns:cc="http://creativecommons.org/ns#"
   xmlns:rdf="http://www.w3.org/1999/02/22-rdf-syntax-ns#"
   xmlns:svg="http://www.w3.org/2000/svg"
   xmlns="http://www.w3.org/2000/svg"
   viewBox="0 0 466.66666 466.66666"
   height="466.66666"
   width="466.66666"
   xml:space="preserve"
   version="1.1"
   id="svg2"><metadata
     id="metadata8"><rdf:RDF><cc:Work
         rdf:about=""><dc:format>image/svg+xml</dc:format><dc:type
           rdf:resource="http://purl.org/dc/dcmitype/StillImage" /></cc:Work></rdf:RDF></metadata><defs
     id="defs6" /><g
     transform="matrix(1.3333333,0,0,-1.3333333,0,466.66667)"
     id="g10"><g
       transform="scale(0.1)"
       id="g12"><path
         id="path14"
         style="fill:#59b1c2;fill-opacity:1;fill-rule:nonzero;stroke:none"
         d="m 1750,316.07 c -792.855,0 -1435.715,642.86 -1435.715,1435.71 0,792.86 642.86,1435.72 1435.715,1435.72 792.86,0 1435.71,-642.86 1435.71,-1435.72 C 3185.71,958.93 2544.64,316.07 1750,316.07 Z M 1750,3500 C 783.93,3500 0,2716.07 0,1750 0,783.93 783.93,0 1750,0 c 966.07,0 1750,783.93 1750,1750 0,966.07 -782.14,1751.78 -1750,1750 z M 1560.71,1269.64 1050,1750 l 510.71,482.14 0,450 L 575,1750 l 985.71,-930.359 0,449.999 z m 380.36,1412.5 0,-450 510.72,-482.14 -510.72,-480.36 0,-449.999 985.72,930.359 -985.72,932.14" /></g></g></svg>