<?xml version="1.0" encoding="UTF-8" ?>
<!DOCTYPE svg PUBLIC "-//W3C//DTD SVG 1.1//EN" "http://www.w3.org/Graphics/SVG/1.1/DTD/svg11.dtd">
<svg width="1000pt" height="1000pt" viewBox="0 0 1000 1000" version="1.1" xmlns="http://www.w3.org/2000/svg">
<g id="#105570ff">
<path fill="#105570" opacity="1.00" d=" M 521.16 153.16 C 595.65 154.66 668.90 183.44 726.01 231.05 C 789.59 283.68 832.96 360.17 844.67 441.95 C 845.13 446.50 846.43 451.06 845.84 455.66 C 745.53 455.87 645.22 455.67 544.91 455.76 C 542.53 456.07 540.98 453.99 539.23 452.76 C 533.94 448.42 527.58 445.61 521.02 443.80 C 521.08 346.92 520.80 250.03 521.16 153.16 Z" />
<path fill="#105570" opacity="1.00" d=" M 155.42 545.40 C 156.17 543.66 158.50 544.47 159.96 544.22 C 259.50 544.41 359.07 543.99 458.59 544.43 C 465.05 549.77 472.34 554.20 480.54 556.29 C 480.45 645.53 480.53 734.76 480.50 824.00 C 480.28 831.67 480.96 839.39 480.14 847.03 C 416.83 845.31 354.33 824.52 302.03 788.91 C 220.88 734.22 165.07 642.96 155.42 545.40 Z" />
</g>
<g id="#26c1d9ff">
<path fill="#26c1d9" opacity="1.00" d=" M 303.44 290.43 C 350.92 245.58 414.82 218.18 480.19 215.97 C 480.90 291.90 480.32 367.88 480.48 443.83 C 472.31 445.81 464.87 450.12 458.66 455.73 C 379.77 455.76 300.87 455.75 221.98 455.74 C 220.92 455.64 219.86 455.47 218.83 455.23 C 226.59 392.64 257.46 333.47 303.44 290.43 Z" />
<path fill="#26c1d9" opacity="1.00" d=" M 521.00 556.21 C 529.30 554.24 536.55 549.64 543.10 544.37 C 621.39 544.07 699.72 544.37 778.02 544.23 C 779.89 544.19 783.42 543.89 782.54 546.88 C 773.94 610.20 742.09 669.93 694.69 712.73 C 647.56 755.65 585.04 782.16 521.17 783.85 C 520.77 707.97 521.11 632.09 521.00 556.21 Z" />
</g>
<g id="#222322ff">
<path fill="#222322" opacity="1.00" d=" M 65.93 500.00 C 65.43 487.18 76.33 475.42 89.06 474.58 C 99.20 473.43 109.17 479.21 114.10 487.97 C 224.27 488.05 334.43 487.96 444.60 488.01 C 442.65 495.88 442.60 504.12 444.60 511.98 C 334.44 512.04 224.27 511.95 114.11 512.03 C 108.70 521.75 97.00 527.56 86.01 524.97 C 74.57 522.71 65.50 511.74 65.93 500.00 Z" />
<path fill="#222322" opacity="1.00" d=" M 494.30 475.31 C 504.35 472.50 515.78 476.73 521.70 485.29 C 528.27 494.42 527.73 507.86 520.39 516.40 C 513.58 524.72 501.26 527.87 491.31 523.70 C 481.39 519.98 474.64 509.48 475.26 498.93 C 475.51 487.99 483.67 477.89 494.30 475.31 Z" />
<path fill="#222322" opacity="1.00" d=" M 887.66 487.90 C 894.85 473.43 916.20 469.94 927.63 481.33 C 939.55 491.78 937.85 513.00 924.29 521.29 C 912.39 529.64 894.22 525.06 887.65 512.10 C 777.43 511.87 667.20 512.06 556.98 512.00 C 558.88 504.10 558.88 495.89 556.98 488.00 C 667.21 487.93 777.44 488.13 887.66 487.90 Z" />
</g>
</svg>
