<?xml version="1.0" encoding="utf-8"?>
<!-- Generator: Adobe Illustrator 17.0.1, SVG Export Plug-In . SVG Version: 6.00 Build 0)  -->
<!DOCTYPE svg PUBLIC "-//W3C//DTD SVG 1.1//EN" "http://www.w3.org/Graphics/SVG/1.1/DTD/svg11.dtd">
<svg version="1.1" id="Layer_1" xmlns="http://www.w3.org/2000/svg" xmlns:xlink="http://www.w3.org/1999/xlink" x="0px" y="0px"
	 width="2000px" height="614.759px" viewBox="0 0 2000 614.759" enable-background="new 0 0 2000 614.759" xml:space="preserve">
<linearGradient id="SVGID_1_" gradientUnits="userSpaceOnUse" x1="1190.76" y1="-838.267" x2="1020.215" y2="-839.4318" gradientTransform="matrix(-0.9771 -0.323 0.2901 -0.8773 1473.4467 -35.8309)">
	<stop  offset="0.2308" style="stop-color:#999875"/>
	<stop  offset="0.5632" style="stop-color:#9B9977"/>
	<stop  offset="0.6829" style="stop-color:#A09F7E"/>
	<stop  offset="0.7683" style="stop-color:#A9A889"/>
	<stop  offset="0.8373" style="stop-color:#B7B69A"/>
	<stop  offset="0.8964" style="stop-color:#C9C7B0"/>
	<stop  offset="0.9482" style="stop-color:#DEDDCB"/>
	<stop  offset="0.9944" style="stop-color:#F8F6EB"/>
	<stop  offset="1" style="stop-color:#FBF9EF"/>
</linearGradient>
<path fill="url(#SVGID_1_)" d="M162.473,579.257l-14.467-4.791c0,0,1.844-73.222-24.563-78.348
	c-17.415-20.178,2.678-861.894,65.941-2.886c0,0-21.653,10.874-25.751,29.335C159.536,541.042,162.473,579.257,162.473,579.257z"/>
<linearGradient id="SVGID_2_" gradientUnits="userSpaceOnUse" x1="1217.0259" y1="-539.7853" x2="971.6677" y2="-964.758" gradientTransform="matrix(-0.9771 -0.323 0.2901 -0.8773 1473.4467 -35.8309)">
	<stop  offset="0" style="stop-color:#48A547"/>
	<stop  offset="1" style="stop-color:#3F9143"/>
</linearGradient>
<path fill="url(#SVGID_2_)" d="M170.273,508.548c0,0,125.715-82.799,96.262-254.757C238.171,128.861,171.207,87.794,164.01,72.112
	c-7.922-11.096-15.9-30.762-15.9-30.762l5.347,348.089C153.457,389.439,142.395,495.727,170.273,508.548z"/>
<linearGradient id="SVGID_3_" gradientUnits="userSpaceOnUse" x1="1239.5034" y1="-845.2819" x2="1065.5883" y2="-728.4633" gradientTransform="matrix(-0.9771 -0.323 0.2901 -0.8773 1473.4467 -35.8309)">
	<stop  offset="0" style="stop-color:#41A247"/>
	<stop  offset="0.3523" style="stop-color:#4BA74B"/>
	<stop  offset="0.9557" style="stop-color:#67B554"/>
	<stop  offset="1" style="stop-color:#69B655"/>
</linearGradient>
<path fill="url(#SVGID_3_)" d="M140.645,513.174c0,0-117.925-80.447-111.14-222.388c6.786-141.944,90.075-211.733,106.297-224.394
	c10.487-11.183,10.921-15.49,11.732-26.518c7.352,15.787,6.13,235.85,6.908,261.571
	C157.466,401.572,148.898,494.274,140.645,513.174z"/>
<path fill="#C0BFBE" d="M1486.286,249.26c6.748,0,32.408,1.177,44.33,1.177c22.241,0,37.728-1.177,79.428-1.177
	c34.957,0,64.353,9.415,85.401,27.456c25.423,21.969,38.924,52.564,38.924,89.828c0,52.956-24.226,83.551-48.453,100.812
	c-24.232,18.041-55.613,28.241-100.492,28.241c-23.833,0-64.749-0.785-98.907-1.172h-0.468c-1.584-3.143,2.927-15.375,5.722-15.693
	c9.231-1.046,11.733-1.4,16.022-3.166c7.207-2.965,8.914-6.641,9.713-19.587c1.187-24.318,0.794-53.344,0.794-86.297
	c0-23.533,0.393-69.429-0.402-83.944c-1.192-12.159-6.346-15.295-16.679-17.652c-5.164-1.174-12.315-2.353-22.24-3.53
	C1478.185,262.206,1484.3,251.612,1486.286,249.26z M1565.563,467.357c8.342,6.669,25.021,9.415,39.724,9.415
	c19.062,0,37.733-3.536,56.001-20.003c18.665-16.874,31.376-42.761,31.376-83.948c0-39.618-15.094-71.784-46.069-90.612
	c-17.483-10.982-40.116-15.295-65.936-15.295c-7.548,0-15.095,0.39-19.465,2.351c-1.192,0.785-3.575,3.924-3.575,5.496
	c-0.794,7.059-0.794,60.797-0.794,92.569c0,32.556,0,78.059,0.794,83.556C1558.021,455.588,1560.399,463.826,1565.563,467.357z"/>
<path fill="#C0BFBE" d="M1767.82,249.26c3.575,0,14.15,1.177,41.152,1.177c25.423,0,46.07-0.782,70.698-0.782
	c30.582,0,72.684,10.982,72.684,56.484c0,22.357-15.884,40.402-36.536,49.033c-1.196,0.393-1.196,1.177,0,1.569
	c29.391,7.45,55.207,25.495,55.207,60.014c0,33.733-21.048,54.917-51.631,68.256c-18.67,8.234-41.705,10.979-65.147,10.979
	c-17.87,0-65.766-1.961-92.381-1.564c-2.785-1.182,2.549-13.736,4.923-15.693c6.36-0.392,11.264-0.849,18.018-2.811
	c9.528-2.354,10.659-5.426,11.85-19.549c0.8-12.157,0.8-55.698,0.8-86.69c0-42.364,0.392-70.997,0-85.118
	c-0.402-10.985-4.375-14.515-11.922-16.477c-5.953-1.174-15.88-2.353-23.825-3.53C1759.72,262.597,1765.835,250.83,1767.82,249.26z
	 M1929.718,425.386c0-34.518-25.419-54.129-71.895-54.129c-1.982,0-16.684-0.397-20.254,0.392c-1.192,0.388-2.379,1.172-2.379,1.957
	c0,24.716-0.403,64.333,0.789,80.02c0.795,6.669,5.566,16.085,11.52,18.83c6.36,3.531,20.651,4.316,30.582,4.316
	C1905.491,476.773,1929.718,461.473,1929.718,425.386z M1839.555,268.483c-1.584,0.392-3.575,4.315-3.575,6.277
	c-0.392,14.118-0.789,50.99-0.789,76.485c0,0.785,1.187,1.961,1.986,1.961c5.164,0.397,17.866,0.789,28.591,0.789
	c15.095,0,23.839-1.966,28.602-4.32c12.711-6.272,18.665-20.003,18.665-34.908c0-34.126-23.829-47.072-59.174-47.072
	C1851.472,267.696,1844.719,267.696,1839.555,268.483z"/>
<path fill="#484748" d="M346.874,495.426c-0.662-1.056-1.362-4.175-1.215-7.93c0.109-2.854,0.676-4.665,1.211-5.287
	c7.491-1.182,11.037-1.98,15.247-3.105c7.022-1.743,9.67-5.535,10.082-14.516c1.154-21.156,1.22-60.825,0.799-88.725l0.005-0.822
	c0.033-2.993,0.08-7.085-3.679-9.971c-5.509-3.628-12.376-6.631-21.068-9.238c-3.325-0.985-5.164-2.733-5.065-4.778
	c0.104-1.966,2.189-4.465,6.525-5.3c11.501-1.186,41.658-8.364,53.49-13.824c0.7,0.85,1.806,2.695,1.593,5.637
	c-0.089,1.238-0.198,2.531-0.307,3.872c-0.336,3.942-0.714,8.412-0.714,12.867c0,1.312,1.423,2.554,2.932,2.554
	c0.766,0,1.475-0.299,2.053-0.869c22.552-17.649,42.722-23.949,53.106-23.949c17.063,0,30.341,8.145,40.603,24.888
	c0.601,0.888,1.409,1.354,2.312,1.354c0.861,0,1.674-0.443,2.152-1.154c20.737-15.711,41.289-25.089,55.027-25.089
	c32.516,0,51.939,24.313,51.939,65.024c0,11.699-0.118,26.527-0.222,40.37c-0.099,12.143-0.184,23.529-0.184,31.408
	c0,1.91,2.554,7.206,6.412,8.266c4.753,2.312,11.624,3.494,20.297,4.988l0.336,0.056c0.657,2.331-0.723,11.41-2.043,13.268
	c-2.151-0.018-5.136-0.172-8.848-0.36c-6.753-0.346-16.003-0.812-26.775-0.812c-21.607,0-32.895,0.425-43.677,1.121
	c-0.813-2.694-1.097-11.381-0.108-13.193c6.289-1.177,9.401-1.971,13.175-3.087c6.876-2.266,8.857-5.38,9.259-14.502
	c0.156-6.491,1.405-63.585-0.809-77.143c-2.038-14.048-12.641-30.493-35.827-30.493c-8.597,0-22.496,3.573-35.742,13.605
	c-0.823,0.799-1.296,2.349-1.296,3.367l0.024,0.262c1.56,7.318,1.56,15.851,1.56,28.764c0,7.36-0.047,15.169-0.089,22.921
	c-0.09,15.74-0.175,30.605,0.089,41.832c0,7.655,4.635,9.481,8.361,10.957c2.024,0.449,3.632,0.836,5.239,1.219
	c3.122,0.752,6.352,1.527,11.133,2.293c0.652,1.508,0.713,6.015-0.185,9.868c-0.501,2.13-1.078,3.068-1.381,3.372
	c-12.016-0.411-24.345-0.771-42.131-0.771c-5.391,0-14.196,0.233-21.961,0.439c-6.294,0.169-12.258,0.332-15.644,0.346
	c-0.492-0.775-1.177-3.26-1.177-6.837c0-3.326,0.61-5.67,1.239-6.394c1.669-0.309,3.258-0.589,4.776-0.86
	c4.171-0.743,7.775-1.378,11.231-2.227c5.888-1.793,8.096-5.063,8.526-12.54c1.149-17.458,2.048-67.742-0.426-80.338
	c-4.208-20.208-15.728-30.45-34.228-30.45c-10.849,0-24.539,5.212-35.733,13.595c-1.877,1.382-3.296,4.862-3.296,8.075
	c0,5.987-0.019,13.119-0.043,20.764c-0.076,25.257-0.166,56.692,0.45,70.297c0.378,4.18,1.834,9.158,9.727,10.994
	c1.721,0.481,4.705,0.981,8.162,1.55c1.991,0.332,4.167,0.691,6.403,1.093c0.804,2.162,0.312,10.639-1.064,13.277
	c-3.452-0.023-7.698-0.22-12.569-0.434c-7.443-0.327-16.698-0.743-27.248-0.743c-12.414,0-21.058,0.416-28,0.743
	C354.941,495.212,350.903,495.408,346.874,495.426L346.874,495.426z"/>
<path fill="#484748" d="M747.276,498.957c-59.675,0-80.937-43.723-80.937-84.634c0-28.577,11.699-50.925,34.787-66.411
	c16.409-10.074,35.997-15.87,53.693-15.87c45.54,0,77.352,32.706,77.352,79.54c0,31.842-12.711,56.972-36.754,72.678
	C783.888,491.326,763.88,498.957,747.276,498.957L747.276,498.957z M740.916,348.719c-7.231,0-13.979,1.891-19.001,5.329
	c-13.795,8.378-20.813,25.107-20.813,49.682c0,46.021,23.068,78.157,56.096,78.157c9.742,0,17.687-2.797,24.288-8.556
	c10.149-8.271,15.53-25.164,15.53-48.814C797.016,379.179,774.469,348.719,740.916,348.719L740.916,348.719z"/>
<path fill="#484748" d="M1365.228,498.957c-59.68,0-80.941-43.718-80.941-84.63c0-28.587,11.709-50.934,34.795-66.421
	c16.405-10.074,35.993-15.865,53.689-15.865c45.544,0,77.357,32.711,77.357,79.535c0,31.851-12.716,56.982-36.758,72.678
	C1401.841,491.326,1381.836,498.957,1365.228,498.957L1365.228,498.957z M1358.873,348.719c-7.24,0-13.993,1.891-19.01,5.329
	c-13.785,8.378-20.808,25.102-20.808,49.682c0,46.021,23.064,78.157,56.096,78.157c9.746,0,17.686-2.797,24.288-8.56
	c10.148-8.267,15.53-25.154,15.53-48.805C1414.968,379.183,1392.425,348.719,1358.873,348.719L1358.873,348.719z"/>
<path fill="#484748" d="M1159.179,593.105c-21.423,0-36.859-4.516-50.047-14.651c-12.825-9.891-18.571-24.557-18.571-34.691
	c0-2.914,0.69-10.447,7.027-17.643c3.736-4.236,12.381-12.166,32.351-25.887c0.61-0.229,1.04-0.836,1.04-1.57
	c0-0.817-0.529-1.48-1.253-1.634c-16.461-6.295-21.427-16.626-22.921-22.23c-0.024-0.201-0.095-0.523-0.165-0.864
	c-0.473-2.199-0.913-4.278,2.061-6.412c2.303-1.644,6.006-3.834,9.927-6.146c5.788-3.414,12.343-7.281,15.975-10.391
	c0.577-0.561,0.809-1.382,0.672-2.204c-0.138-0.832-0.62-1.513-1.334-1.864c-24.359-8.177-36.626-26.252-36.626-53.778
	c0-17.77,8.205-33.832,22.505-44.073c9.794-7.734,34.39-17.033,50.322-17.033l0.928,0.009c16.39,0.388,25.63,3.816,38.418,8.547
	c6.942,2.568,13.516,3.61,22.709,3.61c13.568,0,19.493-4.296,24.577-9.229c0.293,0.612,0.984,2.55,1.296,7.015
	c0.322,4.553-0.922,11.302-4.408,16.117c-2.776,3.839-9.203,6.622-15.275,6.622c-0.61,0-1.206-0.028-1.782-0.088
	c-6.248-0.612-9.184-1.522-9.213-1.536l-1.532,0.533c-0.482,0.705-0.171,1.489,0.227,2.48c0.095,0.238,0.194,0.463,0.227,0.612
	c0.799,3.175,2.214,12.446,2.214,15.043c0,28.867-11.402,41.457-23.726,50.766c-11.756,8.864-25.503,14.193-40.991,15.827h-0.014
	c-0.317,0-1.783,0.131-4.743,0.392c-1.906,0.173-4.285,0.388-4.635,0.388l-0.35,0.047c-2.69,0.761-9.675,4.077-9.675,10.251
	c0,5.137,3.169,11.503,18.268,12.642c3.06,0.229,6.347,0.458,9.775,0.691c19.938,1.387,44.836,3.115,56.554,7.085
	c16.117,5.866,26.147,20.287,26.147,37.633c0,25.906-18.438,50.261-49.323,65.145
	C1190.835,589.677,1175.626,593.105,1159.179,593.105L1159.179,593.105z M1156.8,502.091c-6.909,0-11.936,2.008-14.939,3.694
	c-14.56,9.322-21.309,18.635-21.309,29.353c0,10.111,3.93,18.144,12.371,25.285c10.224,8.654,24.009,12.862,42.145,12.862
	c35.667,0,51.66-19.157,51.66-38.146c0-13.212-6.639-22.071-20.297-27.078C1195.904,504.216,1178.322,502.091,1156.8,502.091
	L1156.8,502.091z M1159.179,347.155c-18.397,0-30.285,14.511-30.285,36.965c0,22.664,10.224,49.126,39.028,49.126
	c4.947,0,13.913-2.195,18.353-7.089c6.692-6.142,11.062-18.831,11.062-32.234C1197.337,364.636,1183.07,347.155,1159.179,347.155
	L1159.179,347.155z"/>
<path fill="#484748" d="M1062.212,481.009c-8.734-1.177-15.095-2.354-22.637-5.884c-1.192-0.785-2.786-4.315-2.786-5.492
	c-0.794-12.161-0.794-47.464-0.794-70.605c0-18.83-3.173-35.303-11.118-47.077c-9.534-13.333-23.035-21.179-40.514-21.179
	c-15.487,0-36.144,10.592-53.22,25.107c-0.397,0.392-3.022,2.877-2.965-0.986c0.061-3.857,0.657-11.708,1.016-16.654
	c0.359-4.941-2.601-7.271-2.601-7.271c-11.122,5.492-42.442,12.927-54.01,14.122c-8.454,1.626-10.584,9.744-1.584,12.548v0.002
	c0,0.014,0.086,0.029,0.135,0.043c9.422,2.831,15.769,5.857,20.507,8.979c3.575,2.747,3.175,6.669,3.175,9.808
	c0.397,26.28,0.396,66.687-0.796,88.651c-0.397,8.631-2.781,11.764-9.137,13.338l0.581-0.196c-4.766,1.172-8.739,1.961-14.698,2.746
	c-1.986,1.957-1.986,13.334,0,15.692c3.973,0,24.232-1.182,40.911-1.182c23.035,0,34.952,1.182,40.911,1.182
	c2.383-2.75,3.178-13.343,1.589-15.692c-6.753-0.392-11.52-1.177-16.287-2.354c-6.356-1.569-7.945-4.707-8.338-11.768
	c-0.794-18.434-0.794-57.659-0.794-84.336c0-7.453,1.986-10.984,4.369-12.946c7.94-7.061,21.049-11.764,32.569-11.764
	c11.118,0,18.665,3.53,24.226,8.233c7.548,6.277,10.328,15.3,11.123,21.969c1.589,14.908,1.187,44.718,1.187,70.605
	c0,14.122-1.187,17.654-6.351,19.222c-2.383,1.177-8.739,2.354-16.287,3.138c-2.379,2.349-1.589,13.334,0,15.692
	c10.328,0,22.245-1.182,39.719-1.182c21.848,0,35.746,1.182,41.307,1.182C1063.007,493.951,1063.796,483.751,1062.212,481.009z"/>
</svg>
