<?xml version="1.0" encoding="utf-8"?>
<!-- Generator: Adobe Illustrator 17.0.1, SVG Export Plug-In . SVG Version: 6.00 Build 0)  -->
<!DOCTYPE svg PUBLIC "-//W3C//DTD SVG 1.1//EN" "http://www.w3.org/Graphics/SVG/1.1/DTD/svg11.dtd">
<svg version="1.1" id="pantone_-_logo" xmlns="http://www.w3.org/2000/svg" xmlns:xlink="http://www.w3.org/1999/xlink" x="0px"
	 y="0px" width="1224px" height="792px" viewBox="0 0 1224 792" enable-background="new 0 0 1224 792" xml:space="preserve">
<g id="outlines_3_">
	<g>
		<path fill="#231F20" d="M428.851,458.724l-33.345-69.915c-7.958-16.564-16.135-35.28-18.931-44.1l-0.646,0.646
			c1.075,12.478,1.292,28.18,1.506,41.304l0.861,72.067h-24.308V309.861h27.965l36.142,72.711
			c6.883,13.77,13.337,31.408,15.273,38.292l0.646-0.646c-0.646-7.531-2.151-28.826-2.151-42.379l-0.431-67.977h23.448v148.865
			h-26.028V458.724z"/>
		<path fill="#231F20" d="M499.191,410.751v1.721c0,15.058,5.595,30.978,26.89,30.978c10.111,0,18.931-3.657,27.106-10.757
			l9.25,14.414c-11.401,9.681-24.525,14.414-39.151,14.414c-30.763,0-50.124-22.157-50.124-57.008
			c0-19.146,4.088-31.837,13.553-42.594c8.819-10.111,19.576-14.627,33.342-14.627c10.757,0,20.653,2.795,29.903,11.186
			c9.465,8.604,14.199,21.941,14.199,47.326v4.947h-64.968V410.751z M520.058,365.145c-13.337,0-20.651,10.542-20.651,28.182h40.227
			C539.634,375.687,531.89,365.145,520.058,365.145z"/>
		<path fill="#231F20" d="M689.997,459.154H667.84l-13.337-50.123c-3.442-12.909-7.099-29.688-7.099-29.688h-0.431
			c0,0-1.721,10.757-7.099,30.762l-13.122,49.047h-22.157l-29.686-107.776l23.448-3.226l11.832,52.705
			c3.011,13.553,5.593,28.609,5.593,28.609h0.646c0,0,2.152-14.197,6.237-29.255l13.984-50.339h23.233l12.261,49.047
			c4.518,17.64,6.885,30.978,6.885,30.978h0.646c0,0,2.582-16.566,5.378-29.259l11.184-50.767h24.524L689.997,459.154z"/>
		<path fill="#231F20" d="M858.641,458.724l-12.906-23.02c-10.326-18.286-17.21-28.609-25.383-36.786
			c-2.797-2.797-4.949-4.303-9.681-4.518v64.322h-24.308V309.858h45.39c33.344,0,48.402,19.361,48.402,42.594
			c0,21.297-13.768,40.873-36.999,40.873c5.378,2.797,15.273,17.21,23.018,29.688l21.943,35.711h-29.475V458.724z M824.222,329.864
			h-13.553v47.113h12.694c12.906,0,19.79-1.721,24.308-6.237c4.088-4.088,6.668-10.327,6.668-18.069
			C854.34,337.61,846.167,329.864,824.222,329.864z"/>
		<path fill="#231F20" d="M920.591,410.751v1.721c0,15.058,5.595,30.978,26.89,30.978c10.111,0,18.931-3.657,27.106-10.757
			l9.25,14.414c-11.401,9.681-24.524,14.414-39.151,14.414c-30.763,0-50.124-22.157-50.124-57.008
			c0-19.146,4.088-31.837,13.553-42.594c8.819-10.111,19.576-14.627,33.344-14.627c10.757,0,20.653,2.795,29.901,11.186
			c9.465,8.604,14.199,21.941,14.199,47.326v4.947h-64.968V410.751z M941.458,365.145c-13.337,0-20.651,10.542-20.651,28.182h40.228
			C961.036,375.687,953.29,365.145,941.458,365.145z"/>
		<path fill="#231F20" d="M1029.868,461.09c-23.879,0-23.879-21.512-23.879-30.762V337.61c0-14.843-0.646-22.803-2.152-31.837
			l24.31-5.378c1.721,6.668,1.936,15.704,1.936,29.903v92.287c0,14.628,0.646,16.994,2.367,19.577
			c1.29,1.936,4.947,3.011,7.744,1.721l3.872,14.627C1039.763,460.229,1035.245,461.09,1029.868,461.09z"/>
		<path fill="#231F20" d="M1070.952,333.738c-8.606,0-15.274-7.1-15.274-15.705c0-8.821,6.883-15.919,15.704-15.919
			c8.39,0,15.489,6.885,15.489,15.919C1086.869,326.638,1079.771,333.738,1070.952,333.738z M1059.12,458.724V351.592l23.879-4.301
			v111.433H1059.12z"/>
		<path fill="#231F20" d="M1150.758,461.519c-29.687,0-46.251-20.866-46.251-55.931c0-39.583,23.664-58.514,47.972-58.514
			c11.832,0,20.436,2.797,30.116,11.83l-11.83,15.705c-6.454-5.808-12.047-8.39-18.286-8.39c-7.529,0-13.768,3.874-17.21,10.971
			c-3.226,6.668-4.516,16.779-4.516,30.332c0,14.843,2.367,24.31,7.314,29.688c3.442,3.872,8.604,6.237,14.414,6.237
			c7.531,0,14.843-3.657,21.943-10.757l11.186,14.414C1175.712,457.001,1165.387,461.519,1150.758,461.519z"/>
		<path fill="#231F20" d="M1205.792,461.105c-8.717,0-15.891-7.043-15.891-15.976c0-8.892,7.174-15.978,15.891-15.978
			c8.718,0,15.892,7.086,15.892,15.978C1221.684,454.063,1214.51,461.105,1205.792,461.105z M1205.792,432.332
			c-6.784,0-12.24,5.669-12.24,12.798s5.456,12.884,12.24,12.884c6.786,0,12.285-5.753,12.285-12.884
			C1218.076,437.999,1212.578,432.332,1205.792,432.332z M1208.927,453.975c-0.687-1.203-0.988-1.675-1.675-2.962
			c-1.761-3.223-2.319-4.123-2.963-4.381c-0.172-0.088-0.344-0.129-0.56-0.129v7.471h-3.522v-17.909h6.657
			c3.178,0,5.282,2.103,5.282,5.24c0,2.707-1.804,4.898-3.994,4.939c0.344,0.301,0.515,0.471,0.73,0.773
			c1.029,1.288,4.295,6.957,4.295,6.957L1208.927,453.975L1208.927,453.975z M1207.037,439.203c-0.386-0.129-1.16-0.258-2.02-0.258
			h-1.288v4.853h1.204c1.544,0,2.232-0.172,2.706-0.6c0.431-0.43,0.687-1.074,0.687-1.804
			C1208.326,440.275,1207.896,439.545,1207.037,439.203z"/>
	</g>
	<g>
		<path fill="#338899" d="M270.042,367.154c-12.625-58.058-82.252-92.211-155.52-76.283C41.261,306.8-7.897,366.786,4.723,424.844
			c12.625,58.058,82.257,92.214,155.515,76.284C233.508,485.201,282.667,425.214,270.042,367.154z M137.388,449.522
			c-29.561,0-53.524-23.963-53.524-53.525c0-29.554,23.963-53.514,53.524-53.514c29.549,0,53.512,23.96,53.512,53.514
			C190.902,425.559,166.938,449.522,137.388,449.522z"/>
		<path fill="#99DDDD" d="M149.225,321.078c-42.437,0-76.844,34.404-76.844,76.844s34.407,76.848,76.844,76.848
			c42.443,0,76.851-34.407,76.851-76.848S191.669,321.078,149.225,321.078z M137.388,442.751c-25.821,0-46.753-20.932-46.753-46.755
			c0-25.815,20.932-46.745,46.753-46.745c25.811,0,46.743,20.93,46.743,46.745C184.131,421.819,163.2,442.751,137.388,442.751z"/>
	</g>
</g>
</svg>
