<?xml version="1.0" encoding="utf-8"?>
<!-- Generator: Adobe Illustrator 17.0.1, SVG Export Plug-In . SVG Version: 6.00 Build 0)  -->
<!DOCTYPE svg PUBLIC "-//W3C//DTD SVG 1.1//EN" "http://www.w3.org/Graphics/SVG/1.1/DTD/svg11.dtd">
<svg version="1.1" id="pantone_-_logo" xmlns="http://www.w3.org/2000/svg" xmlns:xlink="http://www.w3.org/1999/xlink" x="0px"
	 y="0px" width="1224px" height="792px" viewBox="0 0 1224 792" enable-background="new 0 0 1224 792" xml:space="preserve">
<g id="outlines_3_">
	<g>
		<path fill="#231F20" d="M464.208,393.168l-20.187-42.326c-4.818-10.028-9.768-21.358-11.461-26.698l-0.391,0.391
			c0.651,7.554,0.782,17.06,0.912,25.005l0.521,43.629h-14.716v-90.122h16.93l21.88,44.019c4.167,8.336,8.074,19.014,9.246,23.182
			l0.391-0.391c-0.391-4.559-1.302-17.451-1.302-25.656l-0.261-41.153h14.195v90.122H464.208z"/>
		<path fill="#231F20" d="M506.791,364.125v1.042c0,9.116,3.387,18.754,16.279,18.754c6.121,0,11.461-2.214,16.41-6.512l5.6,8.726
			c-6.902,5.861-14.847,8.726-23.702,8.726c-18.624,0-30.345-13.414-30.345-34.512c0-11.591,2.475-19.274,8.205-25.786
			c5.339-6.121,11.851-8.855,20.185-8.855c6.512,0,12.503,1.692,18.103,6.772c5.73,5.209,8.596,13.283,8.596,28.651v2.995H506.791z
			 M519.424,336.516c-8.074,0-12.502,6.382-12.502,17.061h24.353C531.275,342.898,526.587,336.516,519.424,336.516z"/>
		<path fill="#231F20" d="M622.304,393.428H608.89l-8.074-30.344c-2.084-7.815-4.298-17.973-4.298-17.973h-0.261
			c0,0-1.042,6.512-4.298,18.623l-7.944,29.693h-13.414l-17.972-65.247l14.195-1.953l7.163,31.907
			c1.823,8.205,3.386,17.32,3.386,17.32h0.391c0,0,1.303-8.595,3.776-17.711l8.466-30.475h14.065l7.423,29.693
			c2.735,10.679,4.168,18.754,4.168,18.754h0.391c0,0,1.563-10.029,3.256-17.713l6.771-30.734h14.847L622.304,393.428z"/>
		<path fill="#231F20" d="M724.4,393.168l-7.813-13.936c-6.251-11.07-10.419-17.32-15.367-22.27
			c-1.693-1.693-2.996-2.605-5.861-2.735v38.94h-14.716v-90.122h27.479c20.186,0,29.302,11.721,29.302,25.786
			c0,12.893-8.335,24.744-22.399,24.744c3.256,1.693,9.246,10.419,13.935,17.973l13.284,21.619H724.4z M703.563,315.157h-8.205
			v28.522h7.685c7.813,0,11.981-1.042,14.716-3.776c2.475-2.475,4.037-6.252,4.037-10.939
			C721.796,319.846,716.848,315.157,703.563,315.157z"/>
		<path fill="#231F20" d="M761.904,364.125v1.042c0,9.116,3.387,18.754,16.279,18.754c6.121,0,11.461-2.214,16.41-6.512l5.6,8.726
			c-6.902,5.861-14.847,8.726-23.702,8.726c-18.624,0-30.345-13.414-30.345-34.512c0-11.591,2.475-19.274,8.205-25.786
			c5.339-6.121,11.851-8.855,20.186-8.855c6.512,0,12.503,1.692,18.102,6.772c5.73,5.209,8.596,13.283,8.596,28.651v2.995H761.904z
			 M774.537,336.516c-8.074,0-12.502,6.382-12.502,17.061h24.354C786.389,342.898,781.7,336.516,774.537,336.516z"/>
		<path fill="#231F20" d="M828.06,394.6c-14.456,0-14.456-13.023-14.456-18.623v-56.131c0-8.986-0.391-13.805-1.303-19.274
			l14.717-3.256c1.042,4.037,1.172,9.507,1.172,18.103v55.87c0,8.856,0.391,10.288,1.433,11.852
			c0.781,1.172,2.995,1.823,4.688,1.042l2.344,8.855C834.05,394.079,831.315,394.6,828.06,394.6z"/>
		<path fill="#231F20" d="M852.932,317.502c-5.21,0-9.247-4.298-9.247-9.508c0-5.34,4.167-9.637,9.507-9.637
			c5.079,0,9.377,4.168,9.377,9.637C862.568,313.204,858.271,317.502,852.932,317.502z M845.769,393.168v-64.857l14.456-2.604
			v67.461H845.769z"/>
		<path fill="#231F20" d="M901.246,394.86c-17.972,0-28-12.632-28-33.86c0-23.963,14.326-35.424,29.042-35.424
			c7.163,0,12.372,1.693,18.232,7.162l-7.162,9.508c-3.907-3.516-7.293-5.079-11.07-5.079c-4.558,0-8.335,2.345-10.419,6.642
			c-1.953,4.037-2.734,10.158-2.734,18.363c0,8.986,1.433,14.717,4.428,17.973c2.084,2.344,5.209,3.776,8.726,3.776
			c4.559,0,8.986-2.214,13.284-6.512l6.772,8.726C916.353,392.125,910.102,394.86,901.246,394.86z"/>
		<path fill="#231F20" d="M934.563,394.609c-5.277,0-9.62-4.264-9.62-9.672c0-5.383,4.343-9.673,9.62-9.673
			c5.278,0,9.621,4.29,9.621,9.673C944.184,390.346,939.841,394.609,934.563,394.609z M934.563,377.19
			c-4.107,0-7.41,3.432-7.41,7.748s3.303,7.8,7.41,7.8c4.108,0,7.437-3.483,7.437-7.8S938.671,377.19,934.563,377.19z
			 M936.461,390.293c-0.416-0.728-0.598-1.014-1.014-1.793c-1.066-1.951-1.404-2.496-1.794-2.652
			c-0.104-0.053-0.208-0.078-0.339-0.078v4.523h-2.132v-10.842h4.03c1.924,0,3.198,1.273,3.198,3.172
			c0,1.639-1.092,2.965-2.418,2.99c0.208,0.182,0.312,0.285,0.442,0.468c0.623,0.78,2.6,4.212,2.6,4.212H936.461z M935.317,381.35
			c-0.234-0.078-0.702-0.156-1.223-0.156h-0.78v2.938h0.729c0.935,0,1.351-0.104,1.638-0.363c0.261-0.26,0.416-0.65,0.416-1.092
			C936.097,381.999,935.837,381.557,935.317,381.35z"/>
	</g>
	<g>
		<path fill="#338899" d="M368.066,337.732c-7.643-35.148-49.795-55.824-94.151-46.181c-44.352,9.643-74.112,45.958-66.472,81.106
			c7.643,35.148,49.798,55.826,94.148,46.182C345.948,409.197,375.709,372.881,368.066,337.732z M287.758,387.597
			c-17.896,0-32.403-14.507-32.403-32.404c0-17.892,14.507-32.397,32.403-32.397c17.889,0,32.396,14.505,32.396,32.397
			C320.155,373.09,305.647,387.597,287.758,387.597z"/>
		<path fill="#99DDDD" d="M294.924,309.838c-25.691,0-46.521,20.828-46.521,46.521c0,25.693,20.83,46.523,46.521,46.523
			c25.695,0,46.525-20.83,46.525-46.523C341.449,330.666,320.619,309.838,294.924,309.838z M287.758,383.498
			c-15.632,0-28.304-12.672-28.304-28.305c0-15.628,12.672-28.299,28.304-28.299c15.626,0,28.298,12.671,28.298,28.299
			C316.056,370.826,303.384,383.498,287.758,383.498z"/>
	</g>
</g>
</svg>
