<?xml version="1.0" encoding="utf-8"?>
<!-- Generator: Adobe Illustrator 17.0.1, SVG Export Plug-In . SVG Version: 6.00 Build 0)  -->
<!DOCTYPE svg PUBLIC "-//W3C//DTD SVG 1.1//EN" "http://www.w3.org/Graphics/SVG/1.1/DTD/svg11.dtd">
<svg version="1.1" id="Layer_1" xmlns="http://www.w3.org/2000/svg" xmlns:xlink="http://www.w3.org/1999/xlink" x="0px" y="0px"
	 width="235.262px" height="62.723px" viewBox="0 54.476 235.262 62.723" enable-background="new 0 54.476 235.262 62.723"
	 xml:space="preserve">
<path fill="#333333" d="M36.542,87.986c0-0.681-0.358-1.307-0.947-1.646L19.921,77.32c-0.265-0.156-0.562-0.236-0.864-0.249
	c-0.026,0-0.14,0-0.162,0c-0.299,0.013-0.597,0.093-0.865,0.249L2.356,86.341c-0.585,0.338-0.948,0.964-0.948,1.646l0.034,24.289
	c0,0.338,0.176,0.652,0.473,0.817c0.29,0.175,0.65,0.175,0.94,0l9.315-5.334c0.59-0.349,0.948-0.968,0.948-1.643V94.768
	c0-0.676,0.358-1.302,0.945-1.639l3.966-2.284c0.295-0.171,0.618-0.254,0.949-0.254c0.323,0,0.655,0.083,0.942,0.254l3.965,2.284
	c0.587,0.337,0.947,0.963,0.947,1.639v11.348c0,0.675,0.363,1.296,0.949,1.643l9.312,5.334c0.292,0.175,0.657,0.175,0.947,0
	c0.288-0.166,0.47-0.48,0.47-0.817L36.542,87.986z"/>
<path fill="#333333" d="M120.238,54.596c-0.293-0.163-0.651-0.16-0.942,0.01c-0.289,0.17-0.468,0.48-0.468,0.816v24.054
	c0,0.236-0.127,0.455-0.331,0.573c-0.205,0.118-0.458,0.118-0.662,0l-3.926-2.261c-0.586-0.338-1.306-0.337-1.892,0.001
	l-15.681,9.05c-0.586,0.338-0.947,0.963-0.947,1.639v18.102c0,0.676,0.361,1.301,0.947,1.64l15.679,9.056
	c0.586,0.338,1.307,0.338,1.894,0l15.682-9.056c0.586-0.339,0.947-0.964,0.947-1.64V61.457c0-0.686-0.371-1.319-0.97-1.653
	L120.238,54.596z M118.783,100.633c0,0.168-0.091,0.326-0.236,0.41l-5.384,3.104c-0.146,0.084-0.327,0.084-0.473,0l-5.384-3.104
	c-0.147-0.084-0.236-0.24-0.236-0.41v-6.216c0-0.168,0.091-0.326,0.236-0.41l5.384-3.11c0.147-0.084,0.327-0.084,0.474,0l5.384,3.11
	c0.146,0.084,0.236,0.241,0.236,0.41v6.216H118.783z"/>
<path fill="#333333" d="M176.337,94.254c0.583-0.339,0.942-0.963,0.942-1.637V88.23c0-0.675-0.36-1.299-0.943-1.638l-15.58-9.046
	c-0.586-0.341-1.31-0.342-1.897-0.003l-15.674,9.05c-0.586,0.338-0.947,0.963-0.947,1.639v18.098c0,0.68,0.366,1.309,0.957,1.646
	l15.578,8.876c0.574,0.328,1.278,0.332,1.857,0.01l9.422-5.237c0.299-0.166,0.485-0.48,0.486-0.821
	c0.003-0.341-0.18-0.657-0.475-0.827l-15.774-9.053c-0.294-0.168-0.475-0.483-0.475-0.821v-5.672c0-0.338,0.181-0.651,0.474-0.82
	l4.909-2.831c0.292-0.168,0.654-0.168,0.945,0l4.911,2.831c0.293,0.168,0.474,0.481,0.474,0.82v4.463
	c0,0.339,0.181,0.652,0.474,0.821c0.293,0.17,0.655,0.168,0.948-0.001L176.337,94.254z"/>
<path fill="#80BD01" d="M65.055,77.449c0.586-0.338,1.307-0.338,1.893,0l15.678,9.047c0.586,0.338,0.947,0.963,0.947,1.64v18.109
	c0,0.676-0.361,1.301-0.947,1.64l-15.678,9.055c-0.586,0.338-1.309,0.338-1.894,0l-15.674-9.055
	c-0.586-0.339-0.947-0.964-0.947-1.64V88.137c0-0.676,0.361-1.301,0.947-1.639L65.055,77.449z"/>
<path fill="#80BD01" d="M206.778,117.199c-0.541,0-1.077-0.141-1.55-0.415l-4.936-2.92c-0.737-0.412-0.377-0.558-0.135-0.644
	c0.983-0.341,1.183-0.42,2.231-1.016c0.109-0.062,0.254-0.038,0.367,0.028l3.793,2.251c0.137,0.077,0.332,0.077,0.458,0
	l14.784-8.533c0.137-0.079,0.226-0.236,0.226-0.4V88.49c0-0.167-0.088-0.323-0.23-0.407l-14.778-8.525
	c-0.136-0.079-0.318-0.079-0.455,0l-14.774,8.528c-0.143,0.082-0.234,0.243-0.234,0.405v17.061c0,0.163,0.091,0.318,0.233,0.395
	l4.05,2.339c2.197,1.099,3.542-0.195,3.542-1.495V89.946c0-0.238,0.191-0.426,0.43-0.426h1.874c0.234,0,0.429,0.187,0.429,0.426
	v16.845c0,2.933-1.596,4.615-4.377,4.615c-0.855,0-1.527,0-3.405-0.925l-3.877-2.231c-0.958-0.553-1.55-1.589-1.55-2.698V88.49
	c0-1.109,0.593-2.143,1.55-2.695l14.784-8.543c0.935-0.529,2.178-0.529,3.107,0l14.783,8.543c0.958,0.553,1.552,1.586,1.552,2.695
	v17.061c0,1.109-0.596,2.14-1.552,2.698l-14.783,8.535C207.861,117.058,207.326,117.199,206.778,117.199z"/>
<path fill="#80BD01" d="M211.345,105.446c-6.469,0-7.825-2.969-7.825-5.461c0-0.236,0.19-0.426,0.427-0.426h1.911
	c0.214,0,0.391,0.153,0.425,0.362c0.288,1.946,1.149,2.928,5.061,2.928c3.115,0,4.44-0.705,4.44-2.357
	c0-0.953-0.376-1.659-5.216-2.133c-4.045-0.4-6.547-1.294-6.547-4.53c0-2.983,2.514-4.762,6.73-4.762c4.737,0,7.08,1.644,7.376,5.17
	c0.011,0.122-0.031,0.238-0.113,0.329c-0.08,0.084-0.194,0.136-0.313,0.136h-1.918c-0.199,0-0.375-0.141-0.415-0.334
	c-0.46-2.048-1.58-2.701-4.617-2.701c-3.4,0-3.796,1.184-3.796,2.072c0,1.075,0.466,1.388,5.057,1.996
	c4.543,0.601,6.701,1.451,6.701,4.644C218.715,103.6,216.03,105.446,211.345,105.446z"/>
<path fill="#80BD01" d="M159.576,93.407c0.112-0.065,0.251-0.065,0.363,0l3.009,1.736c0.112,0.065,0.182,0.185,0.182,0.316v3.475
	c0,0.129-0.069,0.25-0.182,0.314l-3.009,1.736c-0.112,0.065-0.251,0.065-0.363,0l-3.007-1.736c-0.112-0.065-0.182-0.185-0.182-0.314
	v-3.475c0-0.131,0.069-0.25,0.182-0.316L159.576,93.407z"/>
<g>
	<path fill="#80BD01" d="M234.902,81.876c0,1.568-1.282,2.85-2.85,2.85c-1.552,0-2.85-1.266-2.85-2.85c0-1.613,1.327-2.85,2.85-2.85
		C233.591,79.026,234.902,80.263,234.902,81.876z M229.664,81.868c0,1.327,1.071,2.397,2.382,2.397c1.327,0,2.397-1.094,2.397-2.397
		c0-1.326-1.085-2.382-2.397-2.382C230.749,79.486,229.664,80.525,229.664,81.868z M230.982,80.278h1.101
		c0.377,0,1.116,0,1.116,0.845c0,0.588-0.377,0.708-0.603,0.783c0.439,0.03,0.468,0.317,0.528,0.724
		c0.03,0.256,0.077,0.694,0.166,0.843h-0.678c-0.016-0.151-0.122-0.965-0.122-1.009c-0.044-0.181-0.106-0.272-0.332-0.272h-0.557
		v1.281h-0.618v-3.195H230.982z M231.586,81.679h0.498c0.406,0,0.483-0.287,0.483-0.451c0-0.437-0.302-0.437-0.468-0.437h-0.512
		v0.889H231.586z"/>
</g>
</svg>
